<svg xmlns="http://www.w3.org/2000/svg" xmlns:xlink="http://www.w3.org/1999/xlink" width="1500" zoomAndPan="magnify" viewBox="0 0 1125 669.750002" height="893" preserveAspectRatio="xMidYMid meet" version="1.0"><path stroke-linecap="butt" transform="matrix(8.785783, 0, 0, 8.785783, 0.209886, -63.695534)" fill="none" stroke-linejoin="miter" d="M 49.531047 60.547064 L 34.171983 60.547064 L 34.171983 55.750163 L 49.531047 55.750163 Z M 34.171983 47.499973 L 49.531047 47.499973 L 49.531047 51.968752 L 34.171983 51.968752 Z M 15.687307 36.171746 L 15.687307 31.56247 L 29.437327 31.56247 L 29.437327 36.171746 Z M 48.515557 31.56247 L 48.515557 36.171746 L 34.171983 36.171746 L 34.171983 31.56247 Z M 60.859275 51.968752 L 54.265703 51.968752 L 54.265703 43.968877 L 34.171983 43.968877 L 34.171983 39.500099 L 53.250213 39.500099 L 53.250213 28.234561 L 34.171983 28.234561 L 34.171983 24.51584 L 59.640598 24.51584 L 59.640598 20.609494 L 34.171983 20.609494 L 34.171983 15.500032 L 29.437327 15.500032 L 29.437327 20.609494 L 4.48446 20.609494 L 4.48446 24.51584 L 29.437327 24.51584 L 29.437327 28.234561 L 11.140721 28.234561 L 11.140721 39.500099 L 29.437327 39.500099 L 29.437327 43.968877 L 9.343606 43.968877 L 9.343606 47.499973 L 29.437327 47.499973 L 29.437327 51.968752 L 3.265783 51.968752 L 3.265783 55.750163 L 29.437327 55.750163 L 29.437327 60.547064 L 8.765613 60.547064 L 8.765613 64.203095 L 29.437327 64.203095 L 29.437327 68.609183 C 29.437327 69.702925 29.06252 70.093737 27.843843 70.156427 C 26.750102 70.156427 22.906445 70.218673 19.077905 70.093737 C 19.718589 71.171918 20.484208 72.906343 20.734524 74.12502 C 26.046728 74.12502 29.375081 74.062329 31.359377 73.359401 C 33.281428 72.640466 34.171983 71.562285 34.171983 68.609183 L 34.171983 64.203095 L 49.531047 64.203095 L 49.531047 67.077945 L 54.265703 67.077945 L 54.265703 55.750163 L 60.859275 55.750163 Z M 81.281118 15.687657 C 77.890519 25.359266 72.249747 34.890823 66.296859 41.093582 C 67.14073 42.187324 68.546588 44.609561 68.984084 45.765548 C 70.968825 43.531381 73.030928 41.031337 74.874727 38.281422 L 74.874727 73.796897 L 79.421757 73.796897 L 79.421757 30.921786 C 81.859111 26.500136 83.968787 21.765481 85.765458 17.09396 Z M 124.671976 47.17185 L 107.328171 47.17185 L 107.328171 33.156398 L 121.921617 33.156398 L 121.921617 28.484432 L 107.328171 28.484432 L 107.328171 16.265651 L 102.593515 16.265651 L 102.593515 28.484432 L 94.077893 28.484432 C 94.906202 25.609582 95.609131 22.59379 96.187569 19.593559 L 91.71879 18.625198 C 90.234236 26.890504 87.609257 35.20294 83.843852 40.453343 C 85.062529 41.031337 87.046825 42.187324 87.937379 42.890697 C 89.656243 40.203028 91.203042 36.875119 92.546655 33.156398 L 102.593515 33.156398 L 102.593515 47.17185 L 84.359155 47.17185 L 84.359155 51.843816 L 102.593515 51.843816 L 102.593515 73.921833 L 107.328171 73.921833 L 107.328171 51.843816 L 124.671976 51.843816 Z M 124.671976 47.17185 " stroke="#000000" stroke-width="0.56" stroke-opacity="1" stroke-miterlimit="4"/></svg>